<svg viewBox="0 0 933.38666 378.39999" xmlns="http://www.w3.org/2000/svg"><path d="M216.701 335.004c-.585-1.341-1.424-2.435-2.521-3.261-1.096-.83-2.433-1.4-4.015-1.739-1.581-.321-3.31-.488-5.2-.488-1.326 0-2.728.148-4.206.445-1.475.315-2.842.792-4.088 1.456-1.251.666-2.282 1.516-3.098 2.559-.818 1.036-1.225 2.31-1.225 3.82 0 1.23.233 2.283.69 3.16a7.136 7.136 0 0 0 1.871 2.266c.788.633 1.736 1.171 2.824 1.59 1.1.433 2.26.813 3.484 1.137l7.332 1.848c1.686.42 3.312.956 4.894 1.586 1.58.648 2.988 1.477 4.206 2.486 1.22 1.006 2.206 2.302 2.943 3.856.739 1.556 1.105 3.477 1.105 5.736 0 2.659-.649 4.928-1.948 6.84a16.155 16.155 0 0 1-5.012 4.744c-2.04 1.26-4.32 2.186-6.848 2.807-2.525.605-5.009.917-7.461.917-3.26 0-6.275-.337-9.027-1.024-2.756-.696-5.086-1.738-7-3.162-1.912-1.416-3.368-3.244-4.361-5.5-.996-2.251-1.364-4.93-1.108-8.046h7.288c-.104 2.267.181 4.188.837 5.748.666 1.555 1.648 2.81 2.943 3.756 1.304.945 2.865 1.623 4.701 2.022 1.839.397 3.847.604 6.034.604 1.682 0 3.349-.193 5.006-.574 1.654-.38 3.119-.95 4.391-1.737a9.45 9.45 0 0 0 3.095-3.005c.788-1.231 1.186-2.691 1.186-4.39 0-1.28-.258-2.373-.772-3.302a7.115 7.115 0 0 0-2.096-2.332c-.89-.639-1.925-1.163-3.1-1.59a35.528 35.528 0 0 0-3.744-1.135l-7.413-1.845a28.892 28.892 0 0 1-4.663-1.66c-1.48-.692-2.774-1.536-3.898-2.564a11.406 11.406 0 0 1-2.674-3.612c-.662-1.39-.994-3.03-.994-4.925 0-2.45.588-4.582 1.76-6.407a15.507 15.507 0 0 1 4.553-4.562c1.863-1.234 3.987-2.152 6.357-2.763 2.378-.624 4.791-.93 7.236-.93 2.706 0 5.27.333 7.696.962 2.426.628 4.552 1.606 6.396 2.906 1.838 1.302 3.274 2.973 4.327 5 1.043 2.029 1.513 4.473 1.41 7.302h-7.286c.045-1.977-.219-3.648-.807-5M326.415 330.683l-10.252 44.977h-7.266l10.248-44.977h-18.357l1.293-5.673h44.076l-1.381 5.673h-18.361M456.464 360.957c-.464 1.758-.923 3.124-1.373 4.124-.923 2.07-2.106 3.86-3.563 5.347a18.616 18.616 0 0 1-4.97 3.645c-1.862.951-3.875 1.637-6.047 2.06a34.961 34.961 0 0 1-6.694.636c-8.11 0-13.836-1.878-17.174-5.636-3.34-3.75-4.22-9.197-2.64-16.331l6.812-29.792h7.264l-7.19 31.478c-1.221 4.965-.71 8.641 1.528 11.061 2.244 2.408 6.048 3.618 11.4 3.618 3.01 0 5.459-.382 7.344-1.138 1.887-.757 3.43-1.836 4.63-3.225 1.196-1.39 2.14-3.061 2.833-5 .687-1.937 1.312-4.083 1.87-6.45l6.89-30.344h7.259l-6.8 30.351a193.97 193.97 0 0 1-1.38 5.596M554.59 369.998c3.877 0 7.251-.726 10.134-2.167 2.88-1.442 5.281-3.331 7.185-5.679 1.922-2.345 3.346-5.004 4.29-7.981a30.008 30.008 0 0 0 1.424-9.086c0-1.844-.222-3.649-.656-5.387-.44-1.757-1.22-3.295-2.331-4.613-1.123-1.324-2.67-2.39-4.63-3.194-1.97-.803-4.454-1.208-7.462-1.208h-11.627l-8.944 39.315zm9.655-44.988c6.783 0 11.916 1.733 15.414 5.182 3.502 3.46 5.25 8.179 5.25 14.193 0 4.767-.748 9.087-2.218 12.947-1.486 3.85-3.546 7.136-6.196 9.852-2.656 2.718-5.844 4.819-9.571 6.284-3.724 1.465-7.848 2.192-12.396 2.192H533.58l11.539-50.65h19.125M675.028 325.01l-11.479 50.65h-7.262l11.48-50.65h7.26M755.604 361.39c.658 2.034 1.656 3.777 2.98 5.206 1.317 1.441 2.976 2.559 5 3.37 2.004.794 4.388 1.2 7.137 1.2 3.62 0 6.805-.738 9.547-2.194 2.758-1.465 5.057-3.376 6.91-5.747 1.866-2.358 3.264-5.027 4.202-7.996a29.435 29.435 0 0 0 1.412-9.008c0-2.352-.334-4.553-.992-6.58-.662-2.027-1.658-3.793-2.983-5.274-1.323-1.488-2.937-2.669-4.839-3.543-1.913-.879-4.137-1.308-6.684-1.308-3.822 0-7.14.744-9.964 2.227-2.833 1.488-5.188 3.412-7.076 5.769-1.877 2.37-3.29 5.05-4.236 8.047a30.065 30.065 0 0 0-1.412 9.105c0 2.452.334 4.688.998 6.725zm-6.224-18.465c1.372-3.69 3.35-6.968 5.926-9.8 2.582-2.832 5.727-5.101 9.454-6.77 3.718-1.676 7.898-2.52 12.534-2.52 3.52 0 6.692.58 9.523 1.74 2.828 1.158 5.232 2.737 7.18 4.741 1.976 2.015 3.475 4.39 4.524 7.13 1.044 2.733 1.567 5.663 1.567 8.793 0 3.956-.679 7.79-2.03 11.475-1.353 3.683-3.288 6.937-5.813 9.777-2.516 2.832-5.607 5.092-9.256 6.762-3.64 1.68-7.735 2.516-12.268 2.516-7.5 0-13.265-1.918-17.32-5.769-4.055-3.86-6.076-9.297-6.076-16.336 0-4.105.677-8.02 2.055-11.739M910.27 335.004c-.588-1.341-1.432-2.435-2.53-3.261-1.098-.83-2.434-1.4-4.01-1.739-1.58-.321-3.32-.488-5.202-.488-1.335 0-2.726.148-4.203.445-1.479.315-2.847.792-4.088 1.456-1.259.666-2.29 1.516-3.101 2.559-.814 1.036-1.224 2.31-1.224 3.82 0 1.23.224 2.283.678 3.16a7.404 7.404 0 0 0 1.882 2.266c.79.633 1.733 1.171 2.828 1.59a30 30 0 0 0 3.476 1.137l7.344 1.848c1.674.42 3.298.956 4.89 1.586 1.574.648 2.976 1.477 4.198 2.486 1.224 1.006 2.21 2.302 2.937 3.856.743 1.556 1.117 3.477 1.117 5.736 0 2.659-.65 4.928-1.953 6.84-1.299 1.913-2.976 3.503-5.01 4.744-2.037 1.26-4.318 2.186-6.857 2.807-2.516.605-5 .917-7.448.917-3.262 0-6.273-.337-9.03-1.024-2.759-.696-5.095-1.738-6.998-3.162-1.922-1.416-3.37-3.244-4.36-5.5-1.002-2.251-1.369-4.93-1.112-8.046h7.29c-.11 2.267.172 4.188.828 5.748.664 1.555 1.65 2.81 2.953 3.756 1.299.945 2.867 1.623 4.695 2.022 1.836.397 3.852.604 6.032.604 1.686 0 3.353-.193 5.014-.574 1.652-.38 3.118-.95 4.391-1.737a9.42 9.42 0 0 0 3.09-3.005c.78-1.231 1.18-2.691 1.18-4.39 0-1.28-.246-2.373-.762-3.302a7.146 7.146 0 0 0-2.101-2.332c-.896-.639-1.919-1.163-3.094-1.59a36.186 36.186 0 0 0-3.742-1.135l-7.422-1.845a28.817 28.817 0 0 1-4.656-1.66c-1.49-.692-2.778-1.536-3.906-2.564-1.118-1.01-1.998-2.221-2.664-3.612-.67-1.39-1-3.03-1-4.925 0-2.45.588-4.582 1.765-6.407 1.164-1.813 2.69-3.337 4.555-4.562 1.854-1.234 3.978-2.152 6.36-2.763a28.232 28.232 0 0 1 7.228-.93c2.704 0 5.266.333 7.696.962 2.421.628 4.554 1.606 6.398 2.906a13.785 13.785 0 0 1 4.32 5c1.047 2.029 1.516 4.473 1.415 7.302h-7.292c.05-1.977-.216-3.648-.795-5" fill="#eeeeee"/><path d="M135.948 216.012c0-10.408-2.662-18.979-7.977-25.65-5.316-6.706-13.505-10.051-24.566-10.051-7.654 0-14.358 2.012-20.103 6.052-5.739 4.04-10.526 9.082-14.36 15.144-3.828 6.06-6.75 12.746-8.772 20.081-2.019 7.337-3.03 14.307-3.03 20.881 0 4.902.587 9.522 1.755 13.875 1.172 4.353 3.032 8.23 5.586 11.64 2.555 3.397 5.74 6.063 9.568 7.965 3.83 1.912 8.407 2.863 13.723 2.863 8.082 0 15.148-1.95 21.215-5.895 6.06-3.93 11.065-8.929 14.996-14.981 3.936-6.063 6.914-12.803 8.93-20.243 2.019-7.444 3.035-14.664 3.035-21.681zm181.98 11.324c-4.685 24.243-16.59 44.796-35.399 61.081-18.78 16.262-40.16 24.507-63.521 24.507-23.372 0-41.58-8.163-54.101-24.292-9.59-12.343-12.434-27.57-13.746-38.065-.33-5.654-.1-11.45.662-17.32-.531 2.154-1.043 4.314-1.479 6.541-1.533 7.977-2.095 15.895-1.653 23.536 1.316 10.498 4.153 25.73 13.749 38.078.13.171.283.303.419.477l-1.063 5.05c-2.77 12.32-6.49 22.957-11.167 31.883-4.684 8.93-10.693 16.27-18.028 22.012-7.344 5.747-16.064 9.984-26.169 12.75-10.103 2.766-21.96 4.16-35.568 4.16-8.299 0-16.65-.965-25.055-2.875-8.396-1.911-15.953-4.992-22.652-9.247-6.7-4.256-12.121-9.793-16.274-16.6-4.142-6.815-6.216-15.208-6.216-25.21h44.99c-.215 4.257.525 7.874 2.233 10.853a21.563 21.563 0 0 0 6.855 7.343c2.87 1.909 6.119 3.286 9.736 4.14a47.043 47.043 0 0 0 10.844 1.277c7.234 0 13.248-1.494 18.027-4.471 4.79-2.983 8.885-7.023 12.283-12.12 3.402-5.102 6.276-11.17 8.618-18.196a701.554 701.554 0 0 0 7.023-22.339l-.643-.637c-11.699 15.504-26.804 23.255-45.308 23.255-9.783 0-18.61-1.583-26.479-4.767-7.873-3.179-14.52-7.75-19.945-13.715-5.422-5.942-9.625-13.01-12.604-21.19-2.98-8.18-4.462-17.37-4.462-27.576 0-12.112 1.859-24.071 5.578-35.858 3.728-11.789 9.148-22.418 16.28-31.872 7.118-9.458 15.84-17.106 26.161-22.953 10.313-5.84 22.065-8.775 35.254-8.775 11.488 0 21.592 2.235 30.309 6.698 8.722 4.464 15.426 12.112 20.106 22.941h.638l5.107-25.201h43.39l-.007.041c3.574-8.403 4.549-16.987 3.02-26.61l-.787-4.907 3.53 2.93c11.77 9.812 10.483 24.124 7.329 34.376-.072.264-.184.62-.304.967l-.198.63-.045.125-.383 1.224-.213.042c-1.047 2.459-2.492 5.422-3.75 7.938 0 0-1.209 2.436-1.262 2.553-9.636 17.185-4.96 34.613-4.91 34.787l.191.702-.43.723c-3.886 6.44-6.614 13.641-8.12 21.415-2.706 14.033-.42 26.205 6.806 36.135 7.223 9.923 17.479 14.97 30.503 14.97 13.01 0 25.208-4.997 36.256-14.868 11.043-9.86 18.06-22.137 20.828-36.452 2.712-14.048.424-26.236-6.793-36.247-7.206-10.025-17.444-15.09-30.458-15.09-13.01 0-25.212 5.001-36.256 14.87-.489.43-1.058.984-1.694 1.622l-2.647 2.698.039-3.445c.074-6.937 1.693-13.28 4.822-18.857l.096-.166c.023-.034.127-.241.206-.417l.565-1.184h.024c.29-.577.588-1.18.588-1.18l.525-1.061c.678-1.356 1.312-2.631 1.934-3.942.021-.046 2.197-4.617 3.113-7.673 1.921-6.3 2.736-12.37 2.425-18.057l-.025-.463.233-.464c7.16-14.464 14.766-26.707 21.926-37.792 2.556-3.95 5.31-7.924 8.226-12.113C265.2 65.897 282.928 40.397 273.256 8.14l-1.833-6.116 4.552 3.98c20.088 17.563 25.044 46.363 13.938 81.12-7.414 23.199-9.565 43.035-6.406 57.85 5.285-23.36 15.252-35.694 25.392-45.353l6.154-5.857-3.816 7.513c-12 23.606-8.541 42.534.93 65.41 5.466 13.16 10.91 34.296 5.856 60.184zm154.263-11.332c0-10.84-2.658-19.501-7.978-25.975-5.318-6.482-13.505-9.718-24.566-9.718-8.511 0-15.9 2.234-22.18 6.689-6.271 4.457-11.434 10.092-15.474 16.89-4.044 6.805-7.021 14.24-8.932 22.32-1.914 8.071-2.87 15.714-2.87 22.933 0 4.892.689 9.562 2.069 14.025 1.387 4.47 3.407 8.344 6.065 11.639 2.658 3.297 6.006 5.946 10.047 7.962 4.045 2.02 8.72 3.033 14.045 3.033 8.503 0 15.842-2.283 22.01-6.854 6.169-4.57 11.329-10.365 15.474-17.37 4.152-7.003 7.238-14.606 9.258-22.786 2.01-8.187 3.032-15.776 3.032-22.788zm145.038-35.097h-32.552l-28.398 134.6h-45.306l28.399-134.6h-32.617l17.442 6.589-27.074 128.012h-43.718l4.467-20.416-.637-.647c-5.11 8.94-12.076 15.383-20.904 19.331-8.827 3.95-18.348 5.919-28.555 5.919-19.999 0-35.467-5.786-46.421-17.376-8.76-9.264-13.954-21.252-15.712-35.874l-10.448 49.063h-44.987l6.161-29.145c16.332-15.61 26.858-34.784 31.176-57.122l.09-.468c5.06-25.894-.384-47.021-5.85-60.184l-.325-.813 16.925-79.999h45.307l-21.119 99.159c1.39-2.252 2.81-4.47 4.367-6.608 7.441-10.2 16.807-18.43 28.079-24.723 11.266-6.257 24.562-9.404 39.878-9.404 9.575 0 18.774 2.138 27.602 6.378 8.818 4.253 15.045 10.944 18.668 20.081h.636l18.178-84.883h45.314l-13.29 62.812h14.063c2.132-10.628 4.468-19.945 7.023-27.925 2.56-7.988 6.052-14.745 10.524-20.283 4.473-5.537 10.372-9.68 17.718-12.452 7.336-2.754 16.974-3.649 28.875-3.649h26.459l-7.7 37.668h-11.472c-5.747 0-10.102.57-13.083 1.955-2.98 1.39-5.267 3.412-6.852 6.076-1.61 2.665-2.823 5.861-3.68 9.596-.839 3.732-1.221 4.113-2.5 9.014h32.156l-2.284 11.16zm77.672-94.627h-45.633l-8.443 38.299h45.615zM813.317 215.4h75.615c0-4.24-.38-8.446-1.126-12.587-.733-4.164-2.17-7.939-4.288-11.341-2.14-3.402-5.218-6.11-9.264-8.128-4.038-2.023-9.35-3.032-15.948-3.032-6.388 0-12.02.961-16.913 2.865-4.899 1.913-9.153 4.47-12.77 7.659a44.377 44.377 0 0 0-9.09 11.165 85.039 85.039 0 0 0-6.216 13.399zm-5.025 34.125v4.139c0 9.554 2.978 17.286 8.921 23.23 5.964 5.947 15.112 8.909 27.456 8.909 4.453 0 8.443-.694 11.959-2.071 3.508-1.375 6.596-3.111 9.252-5.231a37.975 37.975 0 0 0 7.021-7.303 215.843 215.843 0 0 0 5.577-7.932h45.316c-3.625 9.359-7.876 17.537-12.758 24.555-4.9 7.012-10.75 12.899-17.555 17.695-6.807 4.777-14.733 8.345-23.776 10.687-9.039 2.318-19.515 3.493-31.427 3.493-11.062 0-21.112-1.49-30.158-4.454-9.052-2.98-16.766-7.498-23.17-13.56-6.39-6.06-11.346-13.552-14.866-22.486-3.508-8.926-5.278-19.347-5.278-31.246 0-13.177 2.142-25.888 6.394-38.122 2.614-7.476 5.974-14.39 9.904-20.839-2.632-.43-5.274-.707-7.899-.707-8.724 0-16.117 1.484-22.187 4.466-6.062 2.98-11.163 7.01-15.31 12.118-4.143 5.1-7.44 10.896-9.893 17.387-2.451 6.475-4.411 13.223-5.891 20.232l-15.317 73.024H659.62l34.132-164.919h43.07l-6.7 29.722.646.645c5.096-11.476 12.808-20.133 23.133-25.98 10.312-5.84 21.53-8.775 33.659-8.775 4.68 0 9.357.33 14.038.962l-4.64 22.046c6.14-5.737 13.07-10.638 20.896-14.545 11.282-5.64 23.932-8.463 37.976-8.463 11.487 0 21.956 1.5 31.424 4.471 9.47 2.983 17.552 7.503 24.256 13.555 6.69 6.058 11.907 13.617 15.628 22.648 3.726 9.036 5.586 19.516 5.586 31.405 0 8.09-.852 16.69-2.55 25.836H808.606c-.213 1.07-.314 2.021-.314 2.872v2.536zm-127.076-98.967l-35.093 164.95h-45.314l34.779-164.95h45.628" fill="#eeeeee"/></svg>