<svg xmlns="http://www.w3.org/2000/svg" viewBox="0 0 448 100"><defs><style>.cls-1{filter:url(#filter)}.cls-2{fill-rule:evenodd}</style><filter id="filter" filterUnits="userSpaceOnUse"><feFlood result="flood" flood-color="#eeeeee"/><feComposite result="composite" operator="in" in2="SourceGraphic"/><feBlend result="blend" in2="SourceGraphic"/></filter></defs><g id="logo" class="cls-1"><path id="text" class="cls-2" d="M236.675 25a1.828 1.828 0 0 1 1.471.488l12.5 26.485.123-.244c1.268-1.724 1.738-4.239 2.573-6.347l4.778-12.327c.759-1.914 1.376-5.618 3.064-6.591 1.186-.758 9.445-.37 10.047.488.564 1.6-3.538 10.261-4.289 12.083l-10.414 26c-1.467 3.456-2.356 8.117-4.656 10.862a1.608 1.608 0 0 1-1.226-.488L241.209 56c-1.121-2.529-2.236-6.359-4.166-8.177l-.245.122-9.067 19.162c-1.167 2.633-2.355 7.1-4.534 8.788-.163 0 .26-.076-.49 0s-3.5-7.6-5.146-11.473l-10.047-24.776c-.779-1.894-4.96-11.134-4.656-12.571q.121-.244.245-.488a25.129 25.129 0 0 1 10.17-.122c3.26 4.969 5.627 13.8 7.964 19.65.8 2 1.2 4.5 2.45 6.1l.245-.122 5.637-12.083c2.199-4.991 4.101-10.665 7.106-15.01zm-61.263.488c3.669-.054 5.309.244 7.964.366A25.858 25.858 0 0 1 200.9 38.426c1.726 2.961 1.931 5.586 2.573 9.886 2.045 13.688-9.407 23.97-19.481 26.119-20.006 4.268-38.651-13.454-31-32.831 2.773-7.023 8.369-12.011 15.439-14.768a16.121 16.121 0 0 1 6.981-1.344zm263.433 2.075a14.672 14.672 0 0 1 7.106 3.662c.04 1.564.344.793-.735 1.221-2.514-1.056-4.257-2.77-7.474-3.3-6.524-1.065-13.977 5.652-10.905 11.717a15.467 15.467 0 0 0 5.024 5.37c6.578 4.02 14.045 4.333 15.928 13.181a10.834 10.834 0 0 1-1.715 8.055c-2.844 4.673-10.28 8.323-17.889 5.492-1.82-.677-6.1-2.437-6.616-4.516a1.358 1.358 0 0 1 .612-1.587c1.513.037 1.9 1.146 2.941 1.953a14.881 14.881 0 0 0 5.636 2.685c8.3 1.829 17.328-4.373 14.826-12.815-2.464-8.315-14.389-8.879-19.237-14.89-5.6-6.94-.833-13.854 5.636-15.866 2.238-.692 3.117-.89 6.862-.362zM346.092 26.1c10.384-.144 22.983-.146 27.569 5.614 6.776 8.513 2.767 20.97-6.249 23.922 1.729 2.6 4.688 4.891 7.106 6.835l5.391 5.248c1.5 1.209 5.3 4.073 4.9 5.248s-11.284 1.764-12.742.976-10.865-10.5-16.3-15.744c-.074 2.4.086 14.525-.858 15.5-1.784.735-8.265.723-9.8-.122-1.079-4.042-.245-11.326-.245-15.988V37.693l.367-11.351zM135.223 44.406c-.032-3.451-.211-16.266.98-18.063a33.624 33.624 0 0 1 9.19.122q.121 5.675.245 11.351v22.945c0 2.886.5 11.133-.368 13.059-2.95.079-7.564.874-9.557-.488l-.49-18.551-18.992.122v.122l-.245 15.012c-.189 1.252.32 2.933-.368 3.662-1.745.722-8.052.706-9.557-.122-.938-3.851-.245-9.47-.245-13.792l.123-23.311c.336-2.235-.72-8.814.367-10.008 2.187-.881 7.274-.437 9.558 0l.367 17.819zm141.886-18.185c2.45.081 6.919-.088 7.352.244s.163 6.917.245 10.374l.245 27.461 18.869.366c.364 2.7.508 8.662 0 9.032s-13.234.163-19.849.244c-2.778 0-6.888.559-9.19-.244-1.107-4.095-.367-10.377-.367-15.134l.245-32.1zm41.9 17.7c4.425-.031 10.9-.645 14.7.366.047 2.744.565 6.512-.123 9.032l-14.458.366-.115 10.615 15.194.244c1.633.081 4.7.009 4.9.244a30.006 30.006 0 0 1-.123 8.91l-19.972.244-10.169-.122-.49-.61-.123-5.37V54.17c.082-9.153-.666-26.7.245-27.461s9.313-.163 13.968-.244l8.455.122c2.121.316 6.265-.4 6.494.244a29.433 29.433 0 0 1-.123 8.91l-18.134.488zm91.543-16.623c.5 7.486.119 15.918.108 23.58-.082 5.654-.409 11.311-.49 16.965-.014 5.4.264 9.418-1.593 13.059a20.516 20.516 0 0 1-5.146 5.858 5.18 5.18 0 0 1-1.961.976 6.034 6.034 0 0 1-2.573.122c.009 0-1.356-.055-.858-1.1.595-1.1 3.268-.9 4.289-1.587a13.086 13.086 0 0 0 3.8-3.662 17.092 17.092 0 0 0 2.083-5.248 31.575 31.575 0 0 0 .17-4.04c.062-10.265.053-20.458.2-30.744 0-3.02-.688-11.561.113-14.084-.084.264-.048-.751 1.323-.684a.75.75 0 0 1 .539.586zM175.9 35.13l-3.553.732a16.29 16.29 0 0 0-9.435 10.5c-3.313 11.071 7.674 21.289 18.747 18.674 7.52-1.776 13.828-11.528 9.8-20.871-2.49-5.79-7.012-9.131-15.559-9.035zm179.747 1.1l.245 10.74.245.366c4.717.105 11.1-1.134 9.925-6.591-.92-4.276-5.076-4.65-10.413-4.516zm39.288 33.47c2.195-.075 2.4.54 2.618 1.8.292 1.673-.116 2.718-2.45 2.685a1.931 1.931 0 0 1-1.471-1.221 3.015 3.015 0 0 1 0-2.2c.561-.336.492-.534 1.303-1.064z"/><path id="logo-2" data-name="logo" class="cls-2" d="M52.749 0c3.681-.025 7.311-.012 10.136.833A17.609 17.609 0 0 1 66.867 2.5a28.328 28.328 0 0 1 2.469 1.825L72.9 6.984c2.293 1.634 4.408 3.43 6.591 5.159l2.409 2.2a23.182 23.182 0 0 1 3.425 3.591 23.547 23.547 0 0 1 4.461 7.56 21.927 21.927 0 0 1 .617 3l.06 1.27.02 1.23a17.4 17.4 0 0 1-.159 2.877c-.2 1.186-.262 2.276-.538 3.353A54.957 54.957 0 0 1 87.2 44.7l-1.673 3.849a2.333 2.333 0 0 0-.438 1.329 8.463 8.463 0 0 1 2.131 2.579 17.37 17.37 0 0 1 2.171 6.052c.177.879.065 1.778.219 2.738a13.74 13.74 0 0 1-.06 3.274l-.219 2.441A43.347 43.347 0 0 1 88.194 72c-1.967 6.206-5.708 10.95-11.151 13.71a21.747 21.747 0 0 1-4.182 1.528 5.568 5.568 0 0 1-2.29.258 18.365 18.365 0 0 1-4.222-1.151 11.3 11.3 0 0 0-2.708-.972c-2.183 1.186-3.794 4.762-4.3 7.7L59.5 99.9a1.292 1.292 0 0 1-.777.02 1.775 1.775 0 0 1-.94-.995 16.129 16.129 0 0 0-1.45-1.723 14.456 14.456 0 0 0-4.819-3.254 5.033 5.033 0 0 0-3.146-.079 6.676 6.676 0 0 0-2.151 1.667h-.04a9.41 9.41 0 0 0-1.991-1.607 12 12 0 0 0-9.717-2.222c-1.549.364-2.953 1.157-4.132 1.458a37.75 37.75 0 0 1-3.037.645c-1.108.148-1.6.225-3.334.38a25.172 25.172 0 0 1-4.113-.062 5.36 5.36 0 0 1-1.752-.411.682.682 0 0 1-.378-.5h.02c.074.241 1.892.421 2.608.357a23.825 23.825 0 0 0 2.586-.358 9.124 9.124 0 0 0 3.687-1.526c3.188-2.322 5.041-5.953 6.591-9.921.534-1.367.8-2.879 1.234-4.325a39.326 39.326 0 0 0 .936-4.345 13.458 13.458 0 0 0 .2-1.9c.013-.611.144-.652.49.147a12.911 12.911 0 0 1 1.265 3.9h.02c.061-.277.182-.552.239-.873a10.17 10.17 0 0 0 .044-2.392c-.111-1.791-.219-2.611-.283-3.461-.02-.43-.089-.846-.109-1.276-.149-.91-.212-1.687-.369-2.593-.2-1.159-.515-2.391.358-3.075a4.267 4.267 0 0 1 1.374-.714c2.057-.629 4.869.216 6.711.6a6.072 6.072 0 0 0 2.071.159 18.285 18.285 0 0 0 2.19-.337 13.363 13.363 0 0 0 6.611-4.524c.738-.914 1.8-1.469 2.27-2.659.993-2.507-.247-6.792-.9-8.849a19.474 19.474 0 0 0-11.45-12.361 21.072 21.072 0 0 0-3.863-1.111l-1.533-.139-1.454-.02-1.354.139a9.527 9.527 0 0 0-4.1 1.528c-1.174.932-2.3 3.352-3.923 3.651l-.338-1.071c-.3-1-.458-2.063-1.235-2.579a4.489 4.489 0 0 0-3.286-.059 10.815 10.815 0 0 0-5.6 3.77l-1.493 1.528c-1.482 1.833-2.713 2.759-3.206 5.675a4.42 4.42 0 0 0 .06 1.369 42.04 42.04 0 0 0 .856 3.69 5.506 5.506 0 0 1 .319 1.825 2.441 2.441 0 0 1-.6.873c-.681.859-1.564 1.541-2.23 2.4a19.954 19.954 0 0 0-3.037 6.93c-.363 1.414-.469 3.046-.735 4.628-.027.734-.071 1.365-.1 2.1.019 1.85-.043 1.746 0 2.783.027.651.207 2.97-.163 3.148a2.891 2.891 0 0 1-1.493-.079 8.934 8.934 0 0 1-3.644-1.528A9.54 9.54 0 0 1 .5 66.726a22.443 22.443 0 0 1 .617-11.806 18.881 18.881 0 0 1 1.474-3.234 1.694 1.694 0 0 1 .856-.972l.02.02c.353.18.3 1 .3 1.528a14.645 14.645 0 0 0 .1 3.73c.692-.019.728-.934.9-1.468.318-1.034 1.033-3.247 2.262-3.274v.04a4.626 4.626 0 0 1-.378 1.944 17.116 17.116 0 0 0-.378 4.366c0 .579-.066 2.059.219 2.3l.04-.04c.838-.416 1.106-2.814 1.434-3.849a21.255 21.255 0 0 1 1.792-4.464c.693-1.154 1.57-2.12 2.27-3.254.312-.505 1.41-2.243.816-3.1a1.369 1.369 0 0 0-1.354-.04 4.334 4.334 0 0 0-1.294.6 2.4 2.4 0 0 1-.677.516.791.791 0 0 1-.657-.238c.021-.679.789-1.046.677-1.746a.941.941 0 0 0-1.135.079c-.624.405-1.1.974-1.673 1.429a1.071 1.071 0 0 1-.737.4v-.02l.677-1.153A8.639 8.639 0 0 1 10 42.083c1.733-.755 3.643-.314 4.6-1.925.748-1.26.582-3.314.9-5.02.482-2.617.666-5.335 1.215-7.837l.438-2.163a28 28 0 0 1 2.609-6.091c.509-.871.921-1.774 1.493-2.579.857-1.205 1.854-2.308 2.768-3.452a27.807 27.807 0 0 1 4.062-4.187 62.087 62.087 0 0 1 5.536-4.564 26.331 26.331 0 0 1 7.806-3.155c1.2-.3 2.482-.413 3.764-.635l3.983-.337 1.235-.06zM37.635 23.155a1.493 1.493 0 0 0-1.235-1.449 1.406 1.406 0 0 0-.757.159c.268-1.25 2.251-1.823 3.983-1.508 2.935.533 4.6 2.26 7.905 2.322a9.917 9.917 0 0 0-3.445-6.19 3.664 3.664 0 0 0-2.589-.714 1.451 1.451 0 0 1 .617-.873 3.234 3.234 0 0 1 .7-.536c1.448-.636 3.741-.294 5.157.139a24.026 24.026 0 0 1 6.95 3.472c.829.59 1.54 1.314 2.33 1.944A17.335 17.335 0 0 0 60.2 22.1a2.2 2.2 0 0 0 1.354.436c1.108-.2.728-1.951.438-2.758-.123-.344-.475-.747-.02-.853a3.225 3.225 0 0 1 2.071.377 9.8 9.8 0 0 1 3.485 3.313c3.755 5.317 4.187 14.333 4.759 22.758l1.175.4a12.908 12.908 0 0 1 2.151.734l.5-1.448c.321-1.007.575-2.047.816-3.135.464-2.085.544-4.262.916-6.468l.139-2.381.04-1.825-.02-1.488-.04-1.726v-2.48l-.04-1.944c-.2-1.2-.116-2.4-.358-3.492a19 19 0 0 0-3.966-8.136A15.4 15.4 0 0 0 71.308 9.7c-1.9-1.521-3.621-3.27-6.073-4.246-2.7-1.072-7.007-.924-10.1-.278-1.04.218-2.1.311-3.027.6-4.462 1.36-7.547 3.75-10.793 6.27s-6.957 5.973-8.7 9.921c-.357.808-.589 1.645-.9 2.54a5.331 5.331 0 0 0 1.314-.278l2.788-.694a6.732 6.732 0 0 1 1.818-.38zm-13.5 16.766h.06l-.4.694L23.1 42.1a33.8 33.8 0 0 0-1.354 4.8l-.4 2.083h-.1a1.579 1.579 0 0 0-.9 0l-.04-.04a5.842 5.842 0 0 1-.319-3.472c.472-2.252 1.34-4.032 3.013-5.071.343-.218.752-.281 1.134-.479zm19.076.6a4.541 4.541 0 0 1 1.1.178l-.378 1.012-.916 2.262c-.618 1.455-1.25 2.879-1.872 4.286a8.3 8.3 0 0 1-1.26 2.241c-.927-.111-1.313-1.07-2.111-1.349a9.319 9.319 0 0 1 .717-3.036c.678-2.128 1.293-3.947 3.007-5.02a4.091 4.091 0 0 1 1.135-.5zm-17.344 8.646c-1.014 0-2.028-.036-3.027-.02v-.02a2.966 2.966 0 0 1 2.549-1.845 2.794 2.794 0 0 1 .478 1.885zm5.695-.655a9.476 9.476 0 0 1 2.39.278l.2 1.032a2.113 2.113 0 0 1 .1 1.012c-1.01 1.073-3.331-.338-4.162-.694l-1.037-.34.04-.04a2.341 2.341 0 0 1 1.693-1.151zm39.845 2.48c.012-1.141-1-1.346-1.991-1.508h-.677l-.8.695a18.676 18.676 0 0 0-4.759 8.532c-.274.977-.882 2.542-.179 3.472a.76.76 0 0 0 .438.357 1.542 1.542 0 0 1 1.414-.853c.792.7.612 2.965.876 4.246l.3 1.091.02-.04a6.006 6.006 0 0 0 .577-1.488c.543-1.542.891-3.27 1.394-4.861a21.834 21.834 0 0 1 3.186-5.694 11.042 11.042 0 0 0 1.294-2.56 2.465 2.465 0 0 0 .239-1.072 1.415 1.415 0 0 0-1.332-.317zm-50.32 1.766a8.826 8.826 0 0 1 6.85 3.353c.359.445.786.848 1.135 1.31a16.4 16.4 0 0 1 2.589 5.06c1.419 4.528.552 10.938-.717 14.94-.344 1.079-.83 2.079-1.254 3.079-.811 1.9-1.34 3.454-3.624 3.909a5.044 5.044 0 0 1-1.653.02l-1.213-.282a10.4 10.4 0 0 1-2.967-1.686 2.155 2.155 0 0 0-1.434-.6c-.49.128-.735 1.008-.916 1.468l-.358 1.111c-.557 2.222 2.921 2.922 4.3 3.591l-.02.04a8.457 8.457 0 0 1-1.334.754 3.667 3.667 0 0 1-2.21-.278c-1.667-.72-2.537-2.326-3.445-3.809a25.949 25.949 0 0 1-2.091-4.186c-1.183-3.033-1.325-7.022-1.334-11.19a32.526 32.526 0 0 1 .08-5.1 23.493 23.493 0 0 1 .558-3.036 13.146 13.146 0 0 1 5.894-7.54 7.79 7.79 0 0 1 2.011-.774zm54.72.4l-.5.119a4.619 4.619 0 0 0-1.115.635 6.544 6.544 0 0 0-1.513 1.984 26.419 26.419 0 0 0-2.589 7.163c-.256 1.041-.29 2.141-.475 3.27a1.348 1.348 0 0 0 .279 1.389.956.956 0 0 0 1.055-.556 5.323 5.323 0 0 0 .358-1.25l.717-2.718a17.5 17.5 0 0 1 3.305-5.833 20.582 20.582 0 0 0 2.011-2.1c.649-1.097-.358-2.121-1.532-2.106z"/></g></svg>