<svg xmlns="http://www.w3.org/2000/svg" viewBox="0 0 128 128"><defs><style>.cls-1{fill:#eeeeee;fill-rule:evenodd}</style></defs><path id="Color_Fill_1" data-name="Color Fill 1" class="cls-1" d="M61.573 0c31.71-.442 52.59 17.928 61.757 40 2.163 5.209 3.221 10.784 4.363 17.267a39.319 39.319 0 0 1 .307 6.7 61.083 61.083 0 0 1-4.67 24.211c-7.691 18.153-21.442 31.065-41.11 37.239a86.829 86.829 0 0 1-10.385 2.151l-5.408.43a34.283 34.283 0 0 1-8.542-.307l-5.715-.738a75.56 75.56 0 0 1-13.765-4.3c-17.225-7.462-29.678-21.088-35.578-39.88-2.349-7.482-4-18.9-2.151-28.39A70.4 70.4 0 0 1 3.687 42.4C10.987 23.623 23.631 11 42.4 3.687A72.929 72.929 0 0 1 54.813.614zM78.9 30.664l-2.151.246a20.553 20.553 0 0 0-3.687 1.106 16.859 16.859 0 0 0-9.709 19.3 31.519 31.519 0 0 1-7.925-1.116 51.813 51.813 0 0 1-21.262-10.749l-4.179-4.179-1.287-1.536-.986 1.964a21.365 21.365 0 0 0-1.168 4.363C25.344 46.4 30.023 54.548 33.8 56.1v.061a15.5 15.5 0 0 1-7.5-2.089c-.138 8.528 6.154 15.6 13.335 16.714v.061a36.541 36.541 0 0 1-4.547.492l-2.888-.18c2.431 6.129 7.184 11.614 15.608 11.614a13.115 13.115 0 0 1-3.008 2.089 37.148 37.148 0 0 1-13.642 4.855 20.548 20.548 0 0 1-6.145.184l-1.905-.123.123.061c1.393 1.367 4.4 2.546 6.329 3.38 9.262 3.993 22.139 5.63 33.429 2.151C82.22 89.442 96.667 72.389 96.6 47.255a26.4 26.4 0 0 0 8.357-8.664l-2.458.983a33.577 33.577 0 0 1-5.162 1.29c-.622.136-1.327.236-1.782.307a16.149 16.149 0 0 0 5.224-5.039 10.541 10.541 0 0 0 1.905-4.179h-.062c-.924.45-1.864 1.034-2.9 1.5a31.888 31.888 0 0 1-7.726 2.494c-2.424-3.166-7.441-5.295-13.096-5.283z"/></svg>